<svg xmlns="http://www.w3.org/2000/svg" viewBox="0 0 64 64" width="64" height="64">
  <defs><linearGradient id="g" x1="0" x2="0" y1="0" y2="1">
    <stop offset="0" stop-color="#3ecf8e"/><stop offset="1" stop-color="#2ea86b"/>
  </linearGradient></defs>
  <path fill="url(#g)" d="M57 7C38 7 25 16 21 26c-4 10-3 21 9 27c9 4 18 1 23-5c8-10 8-26 4-41z"/>
  <path fill="#fff" fill-opacity="0.85" d="M35 16c-4 5-6 10-5 16c-7-2-9-8-9-8s2 13 16 15c0 3-1 6-3 9c6-2 10-6 12-12c2-5 2-11 1-16c-2 0-8-3-12-4z"/>
</svg>